<svg width="78" height="58" viewBox="0 0 78 58" fill="none" xmlns="http://www.w3.org/2000/svg">
<mask id="mask0_6300_4463" style="mask-type:alpha" maskUnits="userSpaceOnUse" x="0" y="14" width="70" height="44">
<path d="M0.290314 14.1108H69.8693V57.9446H0.290314V14.1108Z" fill="white"/>
</mask>
<g mask="url(#mask0_6300_4463)">
<path fill-rule="evenodd" clip-rule="evenodd" d="M0.349362 42.6785C2.62274 46.0994 5.42164 49.3746 8.70475 51.9245C10.3483 53.2049 12.1315 54.3062 14.0496 55.0935C15.9707 55.8444 18.0374 56.3049 20.0785 56.6819C24.1814 57.4052 28.4063 57.4594 32.4945 56.6986C36.5905 55.9753 40.5064 54.4518 44.1645 52.4825C47.8137 50.4719 51.2306 48.0411 54.2165 45.1379C57.226 42.2592 59.7946 38.9427 62.1349 35.4834C64.4073 31.9828 66.724 28.4369 68.3173 24.6155C68.6834 23.655 69.0289 22.6718 69.1371 21.6828C69.1853 21.1907 69.1794 20.7006 69.0584 20.2538C68.9354 19.7971 68.6726 19.4714 68.3006 19.0512C67.7337 18.2983 66.7584 17.7826 65.9022 17.2157C65.0165 16.6685 64.1101 16.143 63.1978 15.6372L63.1939 15.6362L63.1516 15.6096C62.1507 14.9502 60.7758 14.7062 59.4984 14.7416C58.8607 14.7691 58.1678 14.8174 57.5961 15.0073C56.9942 15.2234 56.4305 15.5337 55.926 15.9265C53.8534 17.5257 52.2374 19.7401 50.8281 21.9741L50.8379 21.9544L43.6045 36.6044C40.7544 41.3204 36.499 45.1467 31.4739 47.3551C28.9531 48.4449 26.2629 49.0908 23.522 49.2644C20.7918 49.3946 18.0556 49.222 15.3635 48.7497C10.0186 47.7823 4.74554 45.7559 0.349362 42.6805V42.6785ZM0.290314 42.6126C4.86604 45.6036 10.0087 47.6204 15.3979 48.5371C18.0748 48.9849 20.7979 49.1355 23.5063 48.9829C26.2087 48.7924 28.8578 48.1354 31.3361 47.0412C36.2667 44.8407 40.4493 40.9867 43.1951 36.3908L50.338 21.7093L50.3488 21.6896C51.7857 19.3887 53.378 17.1547 55.5648 15.4413C56.1196 15.0044 56.7409 14.6595 57.4051 14.4198C58.1147 14.1875 58.781 14.1521 59.4817 14.1137C60.8683 14.0842 62.2855 14.2741 63.5521 15.0929L63.5078 15.0644C64.4359 15.5692 65.3518 16.0962 66.2546 16.6449C67.1334 17.2295 68.1008 17.695 68.834 18.6132C69.1598 18.9685 69.5839 19.4842 69.7296 20.057C69.888 20.6278 69.89 21.2025 69.8408 21.7536C69.7227 22.8588 69.3684 23.8813 68.9974 24.8802C67.3765 28.8375 65.0854 32.3863 62.8199 35.9391C60.4875 39.4505 57.9021 42.8409 54.8277 45.7697C51.7857 48.729 48.2979 51.212 44.5896 53.2571C37.1908 57.4239 28.2873 58.9543 19.9702 57.2724C17.8927 56.8571 15.8427 56.3729 13.8548 55.5668C11.8944 54.7303 10.0894 53.5789 8.44198 52.2542C5.17371 49.5503 2.41335 46.2858 0.290314 42.6135" fill="#231F20"/>
</g>
<mask id="mask1_6300_4463" style="mask-type:alpha" maskUnits="userSpaceOnUse" x="62" y="0" width="16" height="16">
<path d="M62.8248 0.5H77.2386V15.2917H62.8248V0.5Z" fill="white"/>
</mask>
<g mask="url(#mask1_6300_4463)">
<path fill-rule="evenodd" clip-rule="evenodd" d="M62.8347 15.2199C64.1013 13.5813 65.3679 11.9693 66.4544 10.247C67.5802 8.57495 68.4571 6.73066 69.5023 4.91688C70.016 4.01344 70.5356 3.11196 71.1576 2.25773C71.4686 1.83258 71.7973 1.41333 72.2185 1.05018C72.6259 0.656524 73.2656 0.461663 73.802 0.503981C74.9239 0.533506 75.9455 1.21257 76.4887 2.12782C77.031 3.05488 77.2189 4.11776 77.2386 5.14914C77.239 5.15499 77.2382 5.16086 77.2363 5.16639C77.2344 5.17193 77.2313 5.17701 77.2274 5.18133C77.2234 5.18566 77.2186 5.18914 77.2133 5.19155C77.2079 5.19397 77.2022 5.19528 77.1963 5.1954C77.1851 5.19542 77.1742 5.19116 77.166 5.18349C77.1578 5.17581 77.1528 5.16529 77.152 5.15406C77.0733 4.13351 76.8223 3.10803 76.2663 2.27347C75.7102 1.44876 74.7625 0.915354 73.7981 0.946846C72.7903 0.87402 72.2057 1.76762 71.628 2.58742C71.07 3.42886 70.5947 4.33919 70.1262 5.25149C69.1942 7.05543 68.466 9.05029 67.1856 10.7489C65.9318 12.4259 64.5353 13.9907 62.8967 15.2839C62.892 15.2873 62.8866 15.2898 62.881 15.2911C62.8753 15.2925 62.8694 15.2927 62.8636 15.2918C62.8579 15.2909 62.8524 15.2889 62.8474 15.2858C62.8424 15.2828 62.8381 15.2787 62.8347 15.274C62.8209 15.2583 62.8229 15.2356 62.8347 15.2199Z" fill="#231F20"/>
</g>
<path fill-rule="evenodd" clip-rule="evenodd" d="M67.8243 18.197C67.84 16.647 68.0683 15.1304 68.2957 13.6138C68.5466 12.1012 68.9688 10.622 69.3704 9.14287C69.7623 7.65887 70.2038 6.18839 70.694 4.7339C70.9499 4.00957 71.2255 3.28819 71.5512 2.58847C71.9075 1.93303 72.184 1.10536 72.9645 0.781578C72.9881 0.774689 73.0127 0.783547 73.0215 0.806182C73.0284 0.825865 73.0215 0.850468 72.9999 0.859326L72.9802 0.870151C72.3307 1.19295 72.0807 2.02652 71.7953 2.69279C71.5296 3.40137 71.3131 4.13161 71.1162 4.86676C70.7147 6.33477 70.3622 7.81575 70.0593 9.30722C69.7512 10.8012 69.5268 12.3098 69.1637 13.791C68.7789 15.2682 68.4285 16.7533 67.9109 18.2108C67.9091 18.2165 67.9062 18.2217 67.9023 18.2263C67.8985 18.2308 67.8937 18.2345 67.8884 18.2372C67.8831 18.2399 67.8773 18.2414 67.8713 18.2418C67.8654 18.2421 67.8594 18.2413 67.8538 18.2393C67.8361 18.2344 67.8243 18.2147 67.8243 18.197ZM49.1728 33.3036C50.2376 30.2941 51.5131 27.3564 53.0562 24.5388C53.8386 23.1374 54.6446 21.7242 55.738 20.5009C56.8432 19.3603 58.2112 18.1222 59.9098 18.0582C59.9344 18.0563 59.9541 18.0759 59.956 18.1006C59.956 18.1202 59.9393 18.138 59.9216 18.1448C58.4287 18.6979 57.3825 19.874 56.4112 21.0756C55.4634 22.3058 54.5216 23.5645 53.6684 24.898C52.015 27.5926 50.5525 30.4289 49.2545 33.3351C49.2525 33.3406 49.2494 33.3457 49.2455 33.35C49.2415 33.3543 49.2367 33.3577 49.2314 33.3601C49.2261 33.3625 49.2203 33.3638 49.2144 33.3639C49.2086 33.364 49.2028 33.3629 49.1974 33.3607C49.1869 33.3559 49.1786 33.3475 49.1741 33.3369C49.1695 33.3264 49.1691 33.3145 49.1728 33.3036Z" fill="#231F20"/>
</svg>
