<svg width="58" height="58" viewBox="0 0 58 58" fill="none" xmlns="http://www.w3.org/2000/svg">
<path fill-rule="evenodd" clip-rule="evenodd" d="M33.8132 40.9449L21.1038 23.4675L34.5681 40.3745C34.7229 40.5667 34.6817 40.8544 34.4755 41.0167C34.2702 41.1781 33.979 41.1524 33.825 40.9612C33.8206 40.9562 33.8166 40.9507 33.8132 40.9449Z" fill="#010202"/>
<path d="M33.8974 40.2542C34.6009 41.1525 35.2489 49.0407 35.2489 49.0407C35.2489 49.0407 39.8604 43.8252 40.9005 36.5116C41.9389 29.198 40.5218 28.2203 39.2915 24.5059C38.0612 20.7915 32.8707 16.0029 30.2149 14.6879C28.2996 13.7401 22.1667 11.5849 18.8444 10.4398C17.6477 10.0299 16.2988 10.7062 15.8738 11.9221C13.9013 17.5732 13.5268 23.6179 15.1535 29.1827C16.1187 32.4821 17.7782 35.5988 20.6166 37.1256C20.6166 37.1256 27.2275 40.4216 31.6295 39.5882C36.0298 38.7548 35.2203 47.1536 35.2203 47.1536" stroke="#010202" stroke-width="0.5" stroke-linecap="round" stroke-linejoin="round"/>
<path fill-rule="evenodd" clip-rule="evenodd" d="M28.9257 56.2987L25.5479 56.8896L22.4073 55.4961L18.9891 55.2493L16.2685 53.1334L13.0068 52.0634L10.8651 49.3481L7.95094 47.5182L6.51111 44.3622L4.1128 41.8774L3.45978 38.4618L1.71785 35.4672L1.88867 31.9936L0.903259 28.6626L1.88783 25.3316L1.71785 21.8579L3.45978 18.8625L4.1128 15.4486L6.51111 12.9638L7.9501 9.80699L10.8651 7.97625L13.0068 5.26088L16.2685 4.19181L18.9891 2.07587L22.4073 1.8291L25.5479 0.435547L28.9257 1.02644L32.3035 0.435547L35.4441 1.8291L38.8623 2.07587L41.5829 4.19181L44.8446 5.26173L46.9863 7.9771L49.9005 9.80699L51.3403 12.963L53.7386 15.4478L54.3916 18.8633L56.1335 21.8579L55.9627 25.3316L56.9481 28.6626L55.9636 31.9936L56.1335 35.4672L54.3916 38.4627L53.7386 41.8765L51.3403 44.3614L49.9013 47.5182L46.9863 49.3489L44.8446 52.0643L41.5829 53.1334L38.8623 55.2493L35.4441 55.4961L32.3035 56.8896L28.9257 56.2987Z" stroke="black" stroke-width="0.5"/>
</svg>
