<svg width="57" height="57" viewBox="0 0 57 57" fill="none" xmlns="http://www.w3.org/2000/svg">
<path fill-rule="evenodd" clip-rule="evenodd" d="M36.5056 45.3887L47.4922 18.5229L37.6241 45.8199C37.5973 45.8939 37.5563 45.9619 37.5032 46.0201C37.4502 46.0782 37.3862 46.1253 37.315 46.1587C37.2437 46.1921 37.1666 46.2112 37.088 46.2148C37.0094 46.2184 36.9309 46.2065 36.8569 46.1797C36.7829 46.153 36.7149 46.1119 36.6567 46.0589C36.5986 46.0059 36.5515 45.9419 36.5181 45.8707C36.4847 45.7994 36.4656 45.7223 36.462 45.6437C36.4584 45.5651 36.4703 45.4865 36.4971 45.4125L36.5056 45.3887Z" fill="#010202"/>
<path d="M22.394 46.4587C22.394 46.4587 12.802 44.0856 9.38377 40.1925C5.96749 36.2974 0.457069 30.7908 0.932056 7.52403C0.932056 7.52403 4.54157 3.82123 23.7238 14.1719M37.2938 44.9709C36.7226 46.3958 38.5369 56.7142 38.5369 56.7142C38.5369 56.7142 31.1304 51.872 27.4276 42.9453C23.7229 34.0186 25.1488 32.2148 25.4334 26.9918C25.717 21.7679 30.5259 13.6179 33.3625 10.8956C35.4062 8.93281 42.2483 3.77553 45.9625 1.00843C46.2788 0.77328 46.6396 0.60505 47.0231 0.514006C47.4065 0.422962 47.8045 0.411014 48.1927 0.478892C48.5809 0.54677 48.9512 0.693049 49.2809 0.9088C49.6107 1.12455 49.8931 1.40525 50.1108 1.73376C54.4152 8.16845 56.8767 15.7387 56.7159 23.4794C56.6207 28.0703 55.6069 32.6993 52.6171 35.7615C52.6171 35.7615 45.5656 42.5655 39.8667 43.2299C34.1697 43.8943 37.9496 54.2945 37.9496 54.2945L37.2938 44.9709Z" stroke="#010202" stroke-width="0.5" stroke-linecap="round" stroke-linejoin="round"/>
<path fill-rule="evenodd" clip-rule="evenodd" d="M12.3451 17.8471C13.7547 19.244 15.1013 20.7031 16.381 22.22C17.0226 22.9786 17.7032 23.7173 18.2096 24.5902C18.6741 25.4659 19.2224 26.3949 19.2071 27.461C19.207 27.4706 19.2037 27.4798 19.1977 27.4873C19.1917 27.4947 19.1834 27.5 19.1741 27.5021C19.1648 27.5043 19.1551 27.5034 19.1464 27.4994C19.1377 27.4954 19.1306 27.4886 19.1262 27.4801L19.1234 27.4725C18.6741 26.5958 18.0811 25.8447 17.4957 25.0642C16.916 24.2837 16.402 23.4479 15.8404 22.6398C14.686 21.0371 13.4994 19.4579 12.2813 17.9032C12.2777 17.8988 12.2751 17.8938 12.2736 17.8883C12.272 17.8829 12.2716 17.8772 12.2723 17.8716C12.273 17.866 12.2749 17.8606 12.2777 17.8557C12.2806 17.8509 12.2844 17.8466 12.2889 17.8433C12.2971 17.8368 12.3073 17.8336 12.3177 17.8343C12.3281 17.835 12.3378 17.8396 12.3451 17.8471Z" fill="#010202"/>
</svg>
